<svg xmlns="http://www.w3.org/2000/svg" width="112.557" height="115.316" viewBox="0 0 112.557 115.316">
  <g id="Group_10299" data-name="Group 10299" transform="matrix(0.485, -0.875, 0.875, 0.485, -257.226, -29.989)">
    <path id="Path_1801" data-name="Path 1801" d="M69.572,301.946a37.954,37.954,0,0,0-4,1.9A41.606,41.606,0,0,0,44.9,332.764a51.3,51.3,0,0,0-.927,13.088,54.828,54.828,0,0,0,2.467,12.834.671.671,0,1,0,1.292-.364A58.972,58.972,0,0,1,46,345.755a54.166,54.166,0,0,1,.97-12.581A39.455,39.455,0,0,1,66.695,305.9q1.413-.767,2.867-1.4a36.6,36.6,0,0,0,.641,5.862C72.508,322.354,80.744,332,93.482,331.8c7.811-.062,12.087-4.65,13.081-10.27.946-5.344-1.177-11.686-6.073-15.984-7.621-6.688-18.685-7.919-29.027-4.319A33.984,33.984,0,0,1,80.313,280a29.024,29.024,0,0,1,15.006-8.485,36.874,36.874,0,0,1,12.247-.465,41.551,41.551,0,0,1,5.294.813.25.25,0,1,0,.165-.473,26.027,26.027,0,0,0-5.206-1.859,31.309,31.309,0,0,0-28.884,9.184A35.962,35.962,0,0,0,69.572,301.946Zm1.835,1.816a34.358,34.358,0,0,0,.636,6.248c2.159,11,9.7,19.932,21.4,19.66,6.414-.2,9.874-3.937,10.645-8.562A15.4,15.4,0,0,0,98.864,307.4C91.687,301.052,81.155,300.133,71.406,303.762Z" transform="translate(1.574)" fill="#ee9617" fill-rule="evenodd"/>
    <path id="Path_1802" data-name="Path 1802" d="M48.475,348.788c-1.194-1.978-2.985-4.964-3.173-5.285l-3.5-5.636-6.2-8.853a.44.44,0,1,0-.745.469l5.13,9.453,3.153,5.818c.224.392,2.716,4.711,3.752,6.428a2.943,2.943,0,0,0,1.481,1.316,1.662,1.662,0,0,0,1.492-.916,23.2,23.2,0,0,0,1.274-4.18l4.019-14.064c1.334-4.844,2.142-6.32.969-6.727-.236-.1-.487-.035-1,.438a2.023,2.023,0,0,0-.347.644,43.879,43.879,0,0,0-1.56,5.028l-4.483,13.985C48.7,346.833,48.638,347.862,48.475,348.788Z" transform="translate(0 9.986)" fill="#ee9617" fill-rule="evenodd"/>
  </g>
</svg>
