<svg xmlns="http://www.w3.org/2000/svg" width="176.315" height="23.669" viewBox="0 0 176.315 23.669">
  <g id="Group_10332" data-name="Group 10332" transform="translate(0 0)">
    <path id="Icon_awesome-star" data-name="Icon awesome-star" d="M12.479.822,9.461,6.942l-6.753.985a1.48,1.48,0,0,0-.818,2.524l4.886,4.761L5.62,21.937a1.478,1.478,0,0,0,2.145,1.558l6.041-3.176,6.041,3.176a1.479,1.479,0,0,0,2.145-1.558l-1.156-6.725,4.886-4.761A1.48,1.48,0,0,0,24.9,7.927l-6.753-.985L15.133.822a1.48,1.48,0,0,0-2.653,0Z" transform="translate(-1.441 0.001)" fill="#ee9617"/>
    <path id="Icon_awesome-star-2" data-name="Icon awesome-star" d="M12.479.822,9.461,6.942l-6.753.985a1.48,1.48,0,0,0-.818,2.524l4.886,4.761L5.62,21.937a1.478,1.478,0,0,0,2.145,1.558l6.041-3.176,6.041,3.176a1.479,1.479,0,0,0,2.145-1.558l-1.156-6.725,4.886-4.761A1.48,1.48,0,0,0,24.9,7.927l-6.753-.985L15.133.822a1.48,1.48,0,0,0-2.653,0Z" transform="translate(36.236 0.001)" fill="#ee9617"/>
    <path id="Icon_awesome-star-3" data-name="Icon awesome-star" d="M12.479.822,9.461,6.942l-6.753.985a1.48,1.48,0,0,0-.818,2.524l4.886,4.761L5.62,21.937a1.478,1.478,0,0,0,2.145,1.558l6.041-3.176,6.041,3.176a1.479,1.479,0,0,0,2.145-1.558l-1.156-6.725,4.886-4.761A1.48,1.48,0,0,0,24.9,7.927l-6.753-.985L15.133.822a1.48,1.48,0,0,0-2.653,0Z" transform="translate(73.913 0.001)" fill="#ee9617"/>
    <path id="Icon_awesome-star-4" data-name="Icon awesome-star" d="M12.479.822,9.461,6.942l-6.753.985a1.48,1.48,0,0,0-.818,2.524l4.886,4.761L5.62,21.937a1.478,1.478,0,0,0,2.145,1.558l6.041-3.176,6.041,3.176a1.479,1.479,0,0,0,2.145-1.558l-1.156-6.725,4.886-4.761A1.48,1.48,0,0,0,24.9,7.927l-6.753-.985L15.133.822a1.48,1.48,0,0,0-2.653,0Z" transform="translate(111.591 0.001)" fill="#ee9617"/>
    <path id="Icon_awesome-star-5" data-name="Icon awesome-star" d="M12.479.822,9.461,6.942l-6.753.985a1.48,1.48,0,0,0-.818,2.524l4.886,4.761L5.62,21.937a1.478,1.478,0,0,0,2.145,1.558l6.041-3.176,6.041,3.176a1.479,1.479,0,0,0,2.145-1.558l-1.156-6.725,4.886-4.761A1.48,1.48,0,0,0,24.9,7.927l-6.753-.985L15.133.822a1.48,1.48,0,0,0-2.653,0Z" transform="translate(150.144 0.001)" fill="#ee9617"/>
  </g>
</svg>
