<svg xmlns="http://www.w3.org/2000/svg" width="375.332" height="347.162" viewBox="0 0 375.332 347.162">
  <path id="Path_14904" data-name="Path 14904" d="M5500,273.528s67.976-92.311,105.756-171.736S5666.9-69.159,5666.9-69.159s22.19,56.381,42.737,101.255,39.451,78.243,39.451,78.243a560.436,560.436,0,0,1,55.229-21.04c31.561-10.191,71.011-19.725,71.011-19.725l-3.945,13.15s-35.5,8.219-63.12,19.068a391.667,391.667,0,0,0-48.272,22.853l100.216,148.883-69.7,4.475-82.777-130.8s-9.6,3.241-33.6,16.391-33.861,16.109-61.8,44.71S5562.36,278,5562.36,278Z" transform="translate(-5500 69.159)" fill="#fff" opacity="0.08"/>
</svg>
