<svg xmlns="http://www.w3.org/2000/svg" width="201.223" height="27.013" viewBox="0 0 201.223 27.013">
  <g id="Group_10327" data-name="Group 10327" transform="translate(-846 -5626.498)">
    <path id="Icon_awesome-star" data-name="Icon awesome-star" d="M14.039.939,10.594,7.923,2.887,9.047a1.689,1.689,0,0,0-.934,2.88l5.576,5.434L6.21,25.036a1.687,1.687,0,0,0,2.448,1.778l6.895-3.624,6.895,3.624A1.688,1.688,0,0,0,24.9,25.036l-1.319-7.676,5.576-5.434a1.689,1.689,0,0,0-.934-2.88L20.512,7.923,17.067.939a1.69,1.69,0,0,0-3.028,0Z" transform="translate(844.559 5626.499)" fill="#ee9617"/>
    <path id="Icon_awesome-star-2" data-name="Icon awesome-star" d="M14.039.939,10.594,7.923,2.887,9.047a1.689,1.689,0,0,0-.934,2.88l5.576,5.434L6.21,25.036a1.687,1.687,0,0,0,2.448,1.778l6.895-3.624,6.895,3.624A1.688,1.688,0,0,0,24.9,25.036l-1.319-7.676,5.576-5.434a1.689,1.689,0,0,0-.934-2.88L20.512,7.923,17.067.939a1.69,1.69,0,0,0-3.028,0Z" transform="translate(887.559 5626.499)" fill="#ee9617"/>
    <path id="Icon_awesome-star-3" data-name="Icon awesome-star" d="M14.039.939,10.594,7.923,2.887,9.047a1.689,1.689,0,0,0-.934,2.88l5.576,5.434L6.21,25.036a1.687,1.687,0,0,0,2.448,1.778l6.895-3.624,6.895,3.624A1.688,1.688,0,0,0,24.9,25.036l-1.319-7.676,5.576-5.434a1.689,1.689,0,0,0-.934-2.88L20.512,7.923,17.067.939a1.69,1.69,0,0,0-3.028,0Z" transform="translate(930.559 5626.499)" fill="#ee9617"/>
    <path id="Icon_awesome-star-4" data-name="Icon awesome-star" d="M14.039.939,10.594,7.923,2.887,9.047a1.689,1.689,0,0,0-.934,2.88l5.576,5.434L6.21,25.036a1.687,1.687,0,0,0,2.448,1.778l6.895-3.624,6.895,3.624A1.688,1.688,0,0,0,24.9,25.036l-1.319-7.676,5.576-5.434a1.689,1.689,0,0,0-.934-2.88L20.512,7.923,17.067.939a1.69,1.69,0,0,0-3.028,0Z" transform="translate(973.559 5626.499)" fill="#ee9617"/>
    <path id="Icon_awesome-star-5" data-name="Icon awesome-star" d="M14.039.939,10.594,7.923,2.887,9.047a1.689,1.689,0,0,0-.934,2.88l5.576,5.434L6.21,25.036a1.687,1.687,0,0,0,2.448,1.778l6.895-3.624,6.895,3.624A1.688,1.688,0,0,0,24.9,25.036l-1.319-7.676,5.576-5.434a1.689,1.689,0,0,0-.934-2.88L20.512,7.923,17.067.939a1.69,1.69,0,0,0-3.028,0Z" transform="translate(1017.559 5626.499)" fill="#ee9617"/>
  </g>
</svg>
