<svg id="vmware-png-logo-6474" xmlns="http://www.w3.org/2000/svg" width="222.583" height="33.881" viewBox="0 0 222.583 33.881">
  <path id="Path_14368" data-name="Path 14368" d="M3.739-761.012a4.756,4.756,0,0,0-2.582,1.358,4.06,4.06,0,0,0-1.011,1.6L0-757.638v1.033a3.475,3.475,0,0,0,.116,1.385c.107.325.387.953,1.487,3.339.218.463.686,1.487,1.046,2.27.637,1.385,1.082,2.355,2.195,4.763.294.637,1.046,2.279,1.678,3.65s1.206,2.622,1.278,2.782.53,1.148,1.015,2.2c1.843,4.006,2.017,4.376,2.248,4.808a7.672,7.672,0,0,0,3.33,3.668,5.339,5.339,0,0,0,2.368.525,5.5,5.5,0,0,0,4.964-2.346,19.837,19.837,0,0,0,1.95-3.472c.223-.476.463-1.01.543-1.18s.191-.414.245-.534c.374-.819.832-1.825.948-2.07.076-.16,1.269-2.764,2.658-5.787s2.582-5.618,2.649-5.765c.289-.628.467-1.006.645-1.4.107-.232.263-.574.347-.757s.2-.423.245-.534a9.9,9.9,0,0,1,.694-1.367,1.408,1.408,0,0,1,.886-.4,1.443,1.443,0,0,1,1.487.926c.076.182.08.779.107,10.323.027,10.786.013,10.123.218,10.929a6.411,6.411,0,0,0,.632,1.433,4.361,4.361,0,0,0,3.869,2.017c2.444,0,4.153-1.523,4.661-4.154.058-.32.071-1.411.1-8.934.027-9.366.009-8.623.272-9.429a4.509,4.509,0,0,1,2.386-2.658,5.161,5.161,0,0,1,2.15-.5,5.3,5.3,0,0,1,2.626.516,4.463,4.463,0,0,1,2.27,2.769c.227.81.223.583.223,9.291,0,5.346.018,8.262.045,8.547.307,2.818,2.083,4.55,4.674,4.55a4.481,4.481,0,0,0,4.474-3.3c.285-.9.263-.143.289-9.589l.027-8.592.1-.441a4.6,4.6,0,0,1,1.206-2.3,4.771,4.771,0,0,1,2.56-1.362,7.662,7.662,0,0,1,2.408.013,4.537,4.537,0,0,1,3.561,3.753c.076.4.085.926.107,8.992.027,8.472.031,8.574.12,8.97a4.771,4.771,0,0,0,2.395,3.37,5.221,5.221,0,0,0,4.363,0,4.763,4.763,0,0,0,2.431-3.348c.174-.775.178-1.3.165-10.818-.018-9.994,0-9.415-.258-10.631a10.569,10.569,0,0,0-4.029-6.277,12.346,12.346,0,0,0-10.595-1.874,13.994,13.994,0,0,0-2.716,1.006,15.956,15.956,0,0,0-2.827,1.79,13.824,13.824,0,0,0-1.082.953c-.071.071-.147.111-.165.089s-.2-.236-.41-.481a10.218,10.218,0,0,0-2.2-1.963,11.641,11.641,0,0,0-5.293-1.758,19.528,19.528,0,0,0-3.316.018,14.175,14.175,0,0,0-3.072.908,19.921,19.921,0,0,0-4.946,3.17l-.165.138-.191-.236a11.885,11.885,0,0,0-7.007-3.98,14.316,14.316,0,0,0-3.089,0,11.22,11.22,0,0,0-3.125.881,10.8,10.8,0,0,0-5,5.044c-.343.663-.254.458-2.164,4.968-.276.65-.605,1.429-.735,1.736s-1.082,2.551-2.115,4.986-1.905,4.478-1.936,4.536-.062.089-.076.067-.165-.37-.338-.775-.592-1.4-.935-2.2-1.019-2.4-1.5-3.539c-.917-2.172-1.46-3.45-1.558-3.673-.031-.076-.191-.454-.356-.846s-.445-1.055-.623-1.469-.548-1.286-.824-1.937c-.663-1.562-.708-1.665-.979-2.315-.129-.307-.272-.637-.312-.735s-.183-.427-.312-.734a9.059,9.059,0,0,0-1.073-2.2,4.484,4.484,0,0,0-2.569-1.763A5.613,5.613,0,0,0,3.739-761.012Z" transform="translate(0 761.078)"/>
  <path id="Path_14369" data-name="Path 14369" d="M4160.5-747.779a14.24,14.24,0,0,0-8.164,3.089,15.783,15.783,0,0,0-2.075,1.99,17.648,17.648,0,0,0-1.82,2.618,18.881,18.881,0,0,0-1.647,13.671,16.018,16.018,0,0,0,4.5,7.7,12.215,12.215,0,0,0,1.131.962,13.852,13.852,0,0,0,2.56,1.58,15.7,15.7,0,0,0,5.3,1.518,24.818,24.818,0,0,0,3.673-.027,15.276,15.276,0,0,0,8.725-3.7c1.563-1.309,1.853-1.723,1.816-2.613a1.391,1.391,0,0,0-.173-.743,2.075,2.075,0,0,0-.97-.97,1.318,1.318,0,0,0-.846-.165,1.278,1.278,0,0,0-.784.134,3.97,3.97,0,0,0-.779.556c-.014.013-.151.134-.312.267s-.3.258-.312.272-.223.174-.468.361c-.392.294-.641.463-1.278.864a17.3,17.3,0,0,1-1.794.877,12.472,12.472,0,0,1-4.273.864,11.045,11.045,0,0,1-7.545-2.5,15.849,15.849,0,0,1-1.6-1.687,12.016,12.016,0,0,1-2.048-4.394,14.06,14.06,0,0,1-.36-2.066v-.16l11.632-.009,11.627-.013.268-.107a2.282,2.282,0,0,0,1.379-1.54,12.149,12.149,0,0,0-.111-3.161c-.873-6.4-4.692-11.258-10.127-12.879a14.178,14.178,0,0,0-3.561-.588c-.463-.022-.864-.04-.89-.036S4160.844-747.8,4160.5-747.779Zm2.03,4.029a9.216,9.216,0,0,1,3.873,1.38,11.485,11.485,0,0,1,4.634,7.67c.093.512.218,1.425.218,1.62v.125h-20.3v-.169c0-.089.04-.419.089-.73a12.082,12.082,0,0,1,5.178-8.552,9.418,9.418,0,0,1,3.971-1.38A16.627,16.627,0,0,1,4162.531-743.75Z" transform="translate(-3961.628 748.406)"/>
  <path id="Path_14370" data-name="Path 14370" d="M4827.482-747.344a4.026,4.026,0,0,0-3.3,2.653,4.182,4.182,0,0,0,.253,3.174,4.819,4.819,0,0,0,.864,1.108,4.4,4.4,0,0,0,1.651.859,4.541,4.541,0,0,0,1.9,0,3.944,3.944,0,0,0,2.311-1.62,3.454,3.454,0,0,0,.658-2.235,3.333,3.333,0,0,0-.267-1.545,4.223,4.223,0,0,0-1.541-1.825A4.147,4.147,0,0,0,4827.482-747.344Zm1.478.85a3.155,3.155,0,0,1,2.079,2.261,3.988,3.988,0,0,1,0,1.6,3.173,3.173,0,0,1-2.907,2.48,3.173,3.173,0,0,1-3.214-2,3.026,3.026,0,0,1-.213-1.429,2.978,2.978,0,0,1,.966-2.164,2.451,2.451,0,0,1,.756-.565,3.786,3.786,0,0,1,1.046-.343,5.75,5.75,0,0,1,.592,0A2.558,2.558,0,0,1,4828.96-746.493Z" transform="translate(-4609.235 747.975)"/>
  <path id="Path_14371" data-name="Path 14371" d="M4879.138-702.884l-.138.116v3.361l.111.12a.373.373,0,0,0,.574-.022c.111-.129.116-.165.116-.623v-.485h.7l.409.534c.49.637.575.712.807.712a.349.349,0,0,0,.333-.516,4.45,4.45,0,0,0-.356-.485,3.926,3.926,0,0,1-.29-.378.864.864,0,0,1,.209-.156,1.161,1.161,0,0,0,.5-1.251,1.158,1.158,0,0,0-.672-.895,3.89,3.89,0,0,0-1.408-.147C4879.281-703,4879.272-703,4879.138-702.884Zm1.9.7a.469.469,0,0,1,.281.467c0,.45-.232.588-1,.588h-.512V-702.3l.547.022A2.007,2.007,0,0,1,4881.034-702.185Z" transform="translate(-4661.803 705.585)"/>
  <path id="Path_14372" data-name="Path 14372" d="M3746.846-747a2.478,2.478,0,0,0-1.585,1.465l-.129.312-.014,14.53c-.009,14.415-.009,14.53.081,14.828a2.643,2.643,0,0,0,.583.979,2.471,2.471,0,0,0,2.155.672,2.39,2.39,0,0,0,1.808-1.7c.08-.312.084-.561.084-5.956,0-5.649.026-7.065.156-8.182a14.192,14.192,0,0,1,3.806-8.65c.307-.307.726-.695.935-.864a12.616,12.616,0,0,1,5.832-2.537,3.468,3.468,0,0,0,1.674-.5,2.809,2.809,0,0,0,.8-.868,2.854,2.854,0,0,0,0-2.315A2.419,2.419,0,0,0,3762-746.79a2.768,2.768,0,0,0-1.549-.2,12.213,12.213,0,0,0-6.588,2.724,16.625,16.625,0,0,0-2.008,1.954c-.165.209-.32.4-.343.423a17.318,17.318,0,0,0-1.42,2.3l-.236.463-.022-3.049c-.027-3.254-.022-3.17-.249-3.61A2.45,2.45,0,0,0,3746.846-747Z" transform="translate(-3578.395 747.697)"/>
  <path id="Path_14373" data-name="Path 14373" d="M1923.474-745.874a2.416,2.416,0,0,0-1.843,1.3,2.31,2.31,0,0,0,.018,2.061c.143.432,8.583,23.945,9.691,27.008a4.265,4.265,0,0,0,1.1,1.856,2.888,2.888,0,0,0,1.135.588,4,4,0,0,0,1.22,0,2.955,2.955,0,0,0,1.051-.508,3.526,3.526,0,0,0,.7-.913c.156-.3.062-.04,4.612-13.03,2.066-5.907,3.771-10.724,3.788-10.706s4.006,11.463,5.979,17.17c2.31,6.691,2.266,6.575,2.609,7.016a2.572,2.572,0,0,0,1.18.89,3.617,3.617,0,0,0,1.576.067,2.838,2.838,0,0,0,1.848-1.651c.156-.329,1.006-2.631,2.226-6.054.107-.294,1.87-5.182,3.917-10.862s3.78-10.47,3.837-10.639a2.653,2.653,0,0,0,.125-2.333,2.361,2.361,0,0,0-1.607-1.229,2.214,2.214,0,0,0-2.417,1,6.147,6.147,0,0,0-.614,1.491c-.12.343-1.963,5.618-4.091,11.717s-3.882,11.1-3.9,11.1-.04-.036-.053-.08-1.166-3.4-2.569-7.465-3.21-9.335-4.029-11.708-1.527-4.416-1.576-4.536a2.781,2.781,0,0,0-1.22-1.322,2.965,2.965,0,0,0-2.43,0,2.9,2.9,0,0,0-1.331,1.825c-.441,1.255-.57,1.634-1.135,3.272-.334.953-1.968,5.671-3.637,10.484s-3.1,8.926-3.17,9.139-.151.378-.174.356-4.087-11.739-6.161-17.775c-.24-.7-1.4-4.073-1.812-5.249a8.969,8.969,0,0,0-.356-.913,3.257,3.257,0,0,0-.628-.828l-.2-.16A2.48,2.48,0,0,0,1923.474-745.874Z" transform="translate(-1835.865 746.576)"/>
  <path id="Path_14374" data-name="Path 14374" d="M2994.743-745.524a20.5,20.5,0,0,0-7.737,1.536,4.087,4.087,0,0,0-1.389.752,1.9,1.9,0,0,0-.57,1.585,1.484,1.484,0,0,0,.191.748,2.2,2.2,0,0,0,1.046,1,1.311,1.311,0,0,0,.824.16,1.779,1.779,0,0,0,.957-.2,15.586,15.586,0,0,1,3.65-1.135,21.18,21.18,0,0,1,5.921-.134c3.557.516,5.9,2.284,6.873,5.182a9.709,9.709,0,0,1,.5,3.37l.027,1.211-.33-.089a34.618,34.618,0,0,0-6.673-1.184,46.381,46.381,0,0,0-4.964-.022,17.025,17.025,0,0,0-6.259,1.634,9.832,9.832,0,0,0-3.864,3.316,9.256,9.256,0,0,0-1.474,4.692,9.143,9.143,0,0,0,1.865,6.393,11.873,11.873,0,0,0,1.38,1.424c.107.085.272.223.37.3a13.45,13.45,0,0,0,2.635,1.5,14.223,14.223,0,0,0,5.289,1.077,14.533,14.533,0,0,0,8.383-2.181,14.767,14.767,0,0,0,2.982-2.573c.174-.2.387-.45.477-.548l.164-.182,0,1.625a13.56,13.56,0,0,0,.062,1.919,2.186,2.186,0,0,0,2.186,1.732,2.278,2.278,0,0,0,2.168-1.46l.1-.254v-9.95c0-9.34,0-9.99-.08-10.595a11.652,11.652,0,0,0-3.049-6.994,12.676,12.676,0,0,0-8.378-3.575C2997.28-745.5,2995.566-745.547,2994.743-745.524Zm3.784,16.329a36.911,36.911,0,0,1,6.077,1.109l.49.142,0,1.87a16.44,16.44,0,0,1-.08,2.373,7.812,7.812,0,0,1-2.4,4.527,10.9,10.9,0,0,1-5.249,2.716,12.532,12.532,0,0,1-6.076-.089,10.537,10.537,0,0,1-1.679-.677,2.464,2.464,0,0,0-.285-.147,7.58,7.58,0,0,1-.881-.619,7.468,7.468,0,0,1-.944-.939,5.787,5.787,0,0,1-1.18-2.644,9.314,9.314,0,0,1,.031-2.253,5.67,5.67,0,0,1,1.553-3.009,9.469,9.469,0,0,1,5.97-2.4A40,40,0,0,1,2998.527-729.2Z" transform="translate(-2848.728 746.222)"/>
</svg>
